<svg width="136" height="18" viewBox="0 0 136 18" fill="none" xmlns="http://www.w3.org/2000/svg">
<path d="M13.35 1.67342V4.67342C11.9833 3.44009 10.475 2.82342 8.825 2.82342C7.025 2.82342 5.55833 3.42342 4.425 4.62343C3.30833 5.80676 2.75 7.32342 2.75 9.17342C2.75 10.9568 3.325 12.4484 4.475 13.6484C5.625 14.8318 7.08333 15.4234 8.85 15.4234C10.5 15.4234 12 14.7818 13.35 13.4984V16.5234C11.95 17.3568 10.425 17.7734 8.775 17.7734C6.45833 17.7734 4.49167 17.0068 2.875 15.4734C1.09167 13.8068 0.2 11.7068 0.2 9.17342C0.2 6.50676 1.09167 4.33176 2.875 2.64843C4.40833 1.19842 6.41667 0.473425 8.9 0.473425C10.6167 0.473425 12.1 0.873425 13.35 1.67342ZM16.5029 0.773424H19.0529V15.0484H23.9529V17.4484H16.5029V0.773424ZM27.26 2.94842C28.91 1.29842 30.9766 0.473425 33.46 0.473425C35.9433 0.473425 38.01 1.29842 39.66 2.94842C41.31 4.59842 42.135 6.65676 42.135 9.12343C42.135 11.5901 41.31 13.6484 39.66 15.2984C38.01 16.9484 35.9433 17.7734 33.46 17.7734C30.9766 17.7734 28.91 16.9484 27.26 15.2984C25.61 13.6484 24.785 11.5901 24.785 9.12343C24.785 6.65676 25.61 4.59842 27.26 2.94842ZM29.06 13.6734C30.21 14.8401 31.6766 15.4234 33.46 15.4234C35.2433 15.4234 36.71 14.8401 37.86 13.6734C39.01 12.4901 39.585 10.9734 39.585 9.12343C39.585 7.27342 39.01 5.76509 37.86 4.59843C36.71 3.41509 35.2433 2.82342 33.46 2.82342C31.6766 2.82342 30.21 3.41509 29.06 4.59843C27.91 5.76509 27.335 7.27342 27.335 9.12343C27.335 10.9734 27.91 12.4901 29.06 13.6734ZM45.3359 0.773424H47.8859V10.8234C47.8859 12.1234 48.0609 13.0818 48.4109 13.6984C48.6943 14.1651 49.1109 14.5734 49.6609 14.9234C50.2109 15.2568 50.8276 15.4234 51.5109 15.4234C52.1943 15.4234 52.8109 15.2568 53.3609 14.9234C53.9109 14.5734 54.3276 14.1651 54.6109 13.6984C54.9609 13.0818 55.1359 12.1234 55.1359 10.8234V0.773424H57.6859V11.4984C57.6859 13.2484 57.1693 14.6901 56.1359 15.8234C54.9359 17.1234 53.3943 17.7734 51.5109 17.7734C49.6276 17.7734 48.0859 17.1234 46.8859 15.8234C45.8526 14.6901 45.3359 13.2484 45.3359 11.4984V0.773424ZM61.6934 0.773424H65.1934C66.51 0.773424 67.66 0.890091 68.6434 1.12342C69.6267 1.34009 70.5434 1.76509 71.3934 2.39842C72.41 3.16509 73.1934 4.13176 73.7434 5.29842C74.31 6.46509 74.5934 7.74009 74.5934 9.12343C74.5934 12.0401 73.4767 14.2818 71.2434 15.8484C70.3434 16.4818 69.4267 16.9068 68.4934 17.1234C67.56 17.3401 66.4434 17.4484 65.1434 17.4484H61.6934V0.773424ZM64.2434 3.17342V15.0484H65.3434C67.2434 15.0484 68.7184 14.6568 69.7684 13.8734C71.285 12.7234 72.0434 11.1401 72.0434 9.12343C72.0434 8.09009 71.8267 7.14843 71.3934 6.29843C70.9767 5.44843 70.4434 4.79009 69.7934 4.32342C68.7267 3.55676 67.2434 3.17342 65.3434 3.17342H64.2434ZM92.9172 0.773424V4.44842H87.6922V7.22343H92.4422V10.8984H87.6922V17.4484H83.3672V0.773424H92.9172ZM95.501 0.773424H99.826V13.7734H105.026V17.4484H95.501V0.773424ZM116.719 0.773424V4.44842H111.569V7.22343H116.444V10.8984H111.569V13.7734H116.719V17.4484H107.244V0.773424H116.719ZM117.726 17.4484L124.251 8.54843L118.901 0.773424H124.251L126.726 5.09842L129.301 0.773424H134.626L129.201 8.54843L135.501 17.4484H130.251L126.701 12.0234L122.951 17.4484H117.726Z" fill="white"/>
</svg>
